/* XPM */
static char *c0558ad42cb3491be4c8918669d387a4[] = {
/* columns rows colors chars-per-pixel */
"96 96 30 1 ",
"  c #0D47A1",
". c #2195F2",
"X c #2195F3",
"o c #2295F3",
"O c #2196F2",
"+ c #2096F3",
"@ c #2196F3",
"# c #2197F3",
"$ c #2296F2",
"% c #2296F3",
"& c #2095F4",
"* c #2196F4",
"= c #2297F4",
"- c #65B5F5",
"; c #64B4F6",
": c #64B5F6",
"> c #64B4F7",
", c #65B5F7",
"< c #64B6F6",
"1 c #90A4AE",
"2 c #CED7DD",
"3 c #CFD7DD",
"4 c #CFD8DB",
"5 c #CFD8DC",
"6 c #CED9DC",
"7 c #CFD9DC",
"8 c #CFD8DD",
"9 c #D0D8DC",
"0 c #D0D9DC",
"q c None",
/* pixels */
"qqqqqqqqqqqqqqqqqqqqqqqqqqqqqqqqqqqqqqqqqqqqqqqqqqqqqqqqqqqqqqqqqqqqqqqqqqqqqqqqqqqqqqqqqqqqqqqq",
"qqqqqqqqqqqqqqqqqqqqqqqqqqqqqqqqqqqqqqqqqqqqqqqqqqqqqqqqqqqqqqqqqqqqqqqqqqqqqqqqqqqqqqqqqqqqqqqq",
"qqqqqqqqqqqqqqqqqqqqqqqqqqqqqqqqqqqqqqqqqqqqqqqqqqqqqqqqqqqqqqqqqqqqqqqqqqqqqqqqqqqqqqqqqqqqqqqq",
"qqqqqqqqqqqqqqqqqqqqqqqqqqqqqqqqqqqqqqqqqqqqqqqqqqqqqqqqqqqqqqqqqqqqqqqqqqqqqqqqqqqqqqqqqqqqqqqq",
"qqqqqqqqqqqqqqqqqqqqqqqqqqqqqqqqqqqqqqqqqqqqqqqqqqqqqqqqqqqqqqqqqqqqqqqqqqqqqqqqqqqqqqqqqqqqqqqq",
"qqqqqqqqqqqqqqqqqqqqqqqqqqqqqqqqqqqqqqqqqqqqqqqqqqqqqqqqqqqqqqqqqqqqqqqqqqqqqqqqqqqqqqqqqqqqqqqq",
"qqqqqqqqqqqqqqqqqqqqqqqqqqqqqqqqqqqqqqqqqqqqqqqqqqqqqqqqqqqqqqqqqqqqqqqqqqqqqqqqqqqqqqqqqqqqqqqq",
"qqqqqqqqqqqqqqqqqqqqqqqqqqqqqqqqqqqqqqqqqqqqqqqqqqqqqqqqqqqqqqqqqqqqqqqqqqqqqqqqqqqqqqqqqqqqqqqq",
"qqqqqqqqqqqqqqqqqqqqqqqqq555552qqqqqqqqqqqqqqqqqqqqqqqqqqqqqqqqqqqqqqqqqqqqqqqqqqqqqqqqqqqqqqqqq",
"qqqqqqqqqqqqqqqqqqqqqqq5555555555qqqqqqqqqqqqqqqqqqqqqqqqqqqqqqqqqqqqqqqqqqqqqqqqqqqqqqqqqqqqqqq",
"qqqqqqqqqqqqqqqqqqqqqq555555555520qqqqqqqqqqqqqqqqqqqqqqqqqqqqqqqqqqqqqqqqqqqqqqqqqqqqqqqqqqqqqq",
"qqqqqqqqqqqqqqqqqqqqq05555555555002qqqqqqqqqqqqqqqqqqqqqqqqqqqqqqqqqqqqqqqqqqqqqqqqqqqqqqqqqqqqq",
"qqqqqqqqqqqqqqqqqqqqq55555555555205qqqqqqqqqqqqqqqqqqqqqqqqqqqqqqqqqqqqqqqqqqqqqqqqqqqqqqqqqqqqq",
"qqqqqqqqqqqqqqqqqqqq0555555555559254qqqqqqqqqqqqqqqqqqqqqqqqqqqqqqqqqqqqqqqqqqqqqqqqqqqqqqqqqqqq",
"qqqqqqqqqqqqqqqqqqqq5555555555554555qqqqqqqqqqqqqqqqqqqqqqqqqqqqqqqqqqqqqqqqqqqqqqqqqqqqqqqqqqqq",
"qqqqqqqqqqqqqqqqqqqq5555555555555555qqqqqqqqqqqqqqqqqqqqqqqqqqqqqqqqqqqqqqqqqqqqqqqqqqqqqqqqqqqq",
"qqqqqqqqqqqqqqqqqqqq5555555555555555qqqqqqqqqqqqqqqqqqqqqqqqqqqqqqqqqqqqqqqqqqqqqqqqqqqqqqqqqqqq",
"qqqqqqqqqqqqqqqqqqqq5555555555555555qqqqqqqqqqqqqqqqqqqqqqqqqqqqqqqqqqqqqqqq::qqqqqqqqqqqqqqqqqq",
"qqqqqqqqqqqqqqqqqqqq5555555555555555qqqqqqqqqqqqqqqqqqqqqqqqqqqqqqqqqqqqqqq::::qqqqqqqqqqqqqqqqq",
"qqqqqqqqqqqqqqqqqqqq5555555555555555qqqqqqqqqqqqqqqqqqqqqqqqqqqqqqqqqqqqqqq::::qqqqqqqqqqqqqqqqq",
"qqqqqqqqqqqqqqqqqqqq5555555511111111qqqqqqqqqqqqqqqqqqqqqqqqqqqqqqqqqqqqqq::::::qqqqqqqqqqqqqqqq",
"qqqqqqqqqqqqqqqqqqqq5555555511111111qqqqqqqqqqqqqqqqqqqqqqqqqqqqqqqqqqqqq::::::::qqqqqqqqqqqqqqq",
"qqqqqqqqqqqqqqqqqqqq5555555511111111qqqqqqqqqqqqqqqqqqqqqqqqqqqqqqqqqqqqq::::::::qqqqqqqqqqqqqqq",
"qqqqqqqqqqqqqqqqqqqq5555555511111111qqqqqqqqqqqqqqqqqqqqqqqqqqqqqqqqqqqq::::::::::qqqqqqqqqqqqqq",
"qqqqqqqqqqqqqqqqqqqq5555555555555555qqqqqqqqqqqqqqqqqqqqqqqqqqqqqqqqqqqq::::::::::qqqqqqqqqqqqqq",
"qqqqqqqqqqqqqqqqqqqq5555555555555555qqqqqqqqqqqqqqqqqqqqqqqqqqqqqqqqqqq::::::::::::qqqqqqqqqqqqq",
"qqqqqqqqqqqqqqqqqqqq5555555555555555qqqqqqqqqqqqqqqqqqqqqqqqqqqqqqqqqqq::::::::::::qqqqqqqqqqqqq",
"qqqqqqqqqqqqqqqqqqqq5555555555555555qqqqqqqqqqqqqqqqqqqqqqqqqqqqqqqqqq:::::::::::::,qqqqqqqqqqqq",
"qqqqqqqqqqqqqqqqqqqq5555555511111111qqqqqqqqqqqqqqqqqqqqqqqqqqqqqqqqqq::::::::::::::qqqqqqqqqqqq",
"qqqqqqqqqqqqqqqqqqqq5555555511111111qqqqqqqqqqqqqqqqqqqqqqqqqqqqqqqqqq::::::::::::::qqqqqqqqqqqq",
"qqqqqqqqqqqqqqqqqqqq5555555511111111qqqqqqqqqqqqqqqqqqqqqqqqqqqqqqqqqq::::::::::::::qqqqqqqqqqqq",
"qqqqqqqqqqqqqqqqqqqq5555555511111111qqqqqqqqqqqqqqqqqqqqqqqqqqqqqqqqqqq::::::::::::qqqqqqqqqqqqq",
"qqqqqqqqqqqqqqqqqqqq5555555555495555qqqqqqqqqqqqqqqqqqqqqqqqqqqqqqqqqqq::::::::::::qqqqqqqqqqqqq",
"qqqqqqqqqqqqqqqqqqqq5555555555535555qqqqqqqqqqqqqqqqqqqqqqqqqqqqqqqqqqqq::::::::::qqqqqqqqqqqqqq",
"qqqqqqqqqqqqqqqqqqqq5555555555345555qqqqqqqqqqqqqqqqqqqqqqqqqqqqqqqqqqqqq::::::::qqqqqqqqqqqqqqq",
"qqqqqqqqqqqqqqqqqqqq5555555555325555qqqqqqqqqqqqqqqqqqqqqqqqqqqqqqqqqqqqqqq::::qqqqqqqqqqqqqqqqq",
"qqqqqqqqqqqqqqqqqqqq@@@@@@@@        qqqqqqqqqqqqqqqqqqqqqqqqqqqqqqqqqqqqqqqqqqqqqqqqqqqqqqqqqqqq",
"qqqqqqqqqqqqqqqqqqqq@@@@@@@@        qqqqqqqqqqqqqqqqqqqqqqqqqqqqqqqqqqqqqqqqqqqqqqqqqqqqqqqqqqqq",
"qqqqqqqqqqqqqqqqqqqq@@@@@@@@        qqqqqqqqqqqqqqqqqqqqqqqqqqqqqqqqqqqqqqqqqqqqqqqqqqqqqqqqqqqq",
"qqqqqqqqqqqqqqqqqqqq@@@@@@@@        qqqqqqqqqqqqqqqqqqqqqqqq::qqqqqqqqqqqqqqqqqqqqqqqqqqqqqqqqqq",
"qqqqqqqqqqqqqqqqqqqq@@@@#X#X#X#X@@@@qqqqqqqqqqqqqqqqqqqqqqq::::qqqqqqqqqqqqqqqqqqqqqqqqqqqqqqqqq",
"qqqqqqqqqqqqqqqqqqqq@@@@X#X#X#X#@@@@qqqqqqqqqqqqqqqqqqqqqqq::::qqqqqqqqqqqqqqqqqqqqqqqqqqqqqqqqq",
"qqqqqqqqqqqqqqqqqqqq@@@@#X#X#X#X@@@@qqqqqqqqqqqqqqqqqqqqqq::::::qqqqqqqqqqqqqqqqqqqqqqqqqqqqqqqq",
"qqqqqqqqqqqqqqqqqqqq@@@@X#X#X#X#@@@@qqqqqqqqqqqqqqqqqqqqq::::::::qqqqqqqqqqqqqqqqqqqqqqqqqqqqqqq",
"qqqqqqqqqqqqqqqqqqqq@@@@#X#X        qqqqqqqqqqqqqqqqqqqqq::::::::qqqqqqqqqqqqqqqqqqqqqqqqqqqqqqq",
"qqqqqqqqqqqqqqqqqqqq@@@@X#X#        qqqqqqqqqqqqqqqqqqqq::::::::::qqqqqqqqqqqqqqqqqqqqqqqqqqqqqq",
"qqqqqqqqqqqqqqqqqqqq@@@@#X#X        qqqqqqqqqqqqqqqqqqqq::::::::::qqqqqqqqqqqqqqqqqqqqqqqqqqqqqq",
"qqqqqqqqqqqqqqqqqqqq@@@@X#X#        qqqqqqqqqqqqqqqqqqq::::::::::::qqqqqqqqqqqqqqqqqqqqqqqqqqqqq",
"qqqqqqqqqqqqqqqqqqqq###X#X#X#X#X@@@@qqqqqqqqqqqqqqqqqqq::::::::::::qqqqqqqqqqqqqqqqqqqqqqqqqqqqq",
"qqqqqqqqqqqqqqqqqqqq##X#X#X#X#X#@@@@qqqqqqqqqqqqqqqqqq::::::::::::::qqqqqqqqqqqqqqqqqqqqqqqqqqqq",
"qqqqqqqqqqqqqqqqqqqq#X#X#X#X#X#X@@@@qqqqqqqqqqqqqqqqqq::::::::::::::qqqqqqqqqqqqqqqqqqqqqqqqqqqq",
"qqqqqqqqqqqqqqqqqqqqX#X#X#X#X#X#@@@@qqqqqqqqqqqqqqqqqq::::::::::::::qqqqqqqqqqqqqqqqqqqqqqqqqqqq",
"qqqqqqqqqqqqqqqqqqqq#X#X#X#X        qqqqqqqqqqqqqqqqqq::::::::::::::qqqqqqqqqqqqqqqqqqqqqqqqqqqq",
"qqqqqqqqqqqqqqqqqqqqX#X#X#X#        qqqqqqqqqqqqqqqqqqq::::::::::::qqqqqqqqqqqqqqqqqqqqqqqqqqqqq",
"qqqqqqqqqqqqqqqqqqqq#X#X#X#X        qqqqqqqqqqqqqqqqqqq::::::::::::qqqqqqqqqqqqqqqqqqqqqqqqqqqqq",
"qqqqqqqqqqqqqqqqqqqqX#X#X#X#        qqqqqqqqqqqqqqqqqqqq::::::::::qqqqqqqqqqqqqqqqqqqqqqqqqqqqqq",
"qqqqqqqqqqqqqqqqqqqq###X#X#X#X#X@@@@qqqqqqqqqqqqqqqqqqqqq::::::::qqqqqqqqqqqqqqqqqqqqqqqqqqqqqqq",
"qqqqqqqqqqqqqqqqqqqq##X#X#X#X#X#@@@@qqqqqqqqqqqqqqqqqqqqqqq::::qqqqqqqqqqqqqqqqqqqqqqqqqqqqqqqqq",
"qqqqqqqqqqqqqqqqqqqq#X#X#X#X#X#X@@@@qqqqqqqqqqqqqqqqqqqqqqqqqqqqqqqqqqqqqqqqqqqqqqqqqqqqqqqqqqqq",
"qqqqqqqqqqqqqqqqqq#XX#X#X#X#X#X#@@@@@@qqqqqqqqqqqqqqqqqqqqqqqqqqqqqqqqqqqqqqqqqqqqqqqqqqqqqqqqqq",
"qqqqqqqqqqqqqqqqq####X#X#X#X#X#X#X#X@@#qqqqqqqqqqqqqqqqqqqqqqqqqqqqqqqqqqqqqqqqqqqqqqqqqqqqqqqqq",
"qqqqqqqqqqqqqqqqX##XX#X#X#X#X#X#X#X#@@##qqqqqqqqqqqqqqqqqqqqqqqqqqqqqqqqqqqq::qqqqqqqqqqqqqqqqqq",
"qqqqqqqqqqqqqqq@#X#X#X#X#X#X#X#X#X#X#X##@qqqqqqqqqqqqqqqqqqqqqqqqqqqqqqqqqq::::qqqqqqqqqqqqqqqqq",
"qqqqqqqqqqqqqqq@X#X#X#X#X#X#X#X#X#X#X#X###qqqqqqqqqqqqqqqqqqqqqqqqqqqqqqqqq::::qqqqqqqqqqqqqqqqq",
"qqqqqqqqqqqqqq#X#X#X#X#X#X#X#X#X#X#X#X#X#Xqqqqqqqqqqqqqqqqqqqqqqqqqqqqqqqq::::::qqqqqqqqqqqqqqqq",
"qqqqqqqqqqqqq#X#X#X#X#X#X#X#X#X#X#X#X#X#X#&qqqqqqqqqqqqqqqqqqqqqqqqqqqqqq::::::::qqqqqqqqqqqqqqq",
"qqqqqqqqqqqqq##X#X#X#X#X#X#X#X#X#X#X#X#X###qqqqqqqqqqqqqqqqqqqqqqqqqqqqqq::::::::qqqqqqqqqqqqqqq",
"qqqqqqqqqqqqq###X#X#X#X#X#X#X#X#X#X#X#X####qqqqqqqqqqqqqqqqqqqqqqqqqqqqq::::::::::qqqqqqqqqqqqqq",
"qqqqqqqqqqqq&X#X#X#X#X#X#X#X#X#X#X#X#X#XX#Xoqqqqqqqqqqqqqqqqqqqqqqqqqqqq::::::::::qqqqqqqqqqqqqq",
"qqqqqqqqqqqq##X#X#X#X#X#X#X#X#X#X#X#X#X##X#Xqqqqqqqqqqqqqqqqqqqqqqqqqqq,:::::::::::qqqqqqqqqqqqq",
"qqqqqqqqqqqq#X#X#X#X#X#X#X#X#X#X#X#X#X#XX#X#qqqqqqqqqqqqqqqqqqqqqqqqqqq,:::::::::::qqqqqqqqqqqqq",
"qqqqqqqqqqqqX#X#X#X#X#X#X#X#X#X#X#X#X#X##X#Xqqqqqqqqqqqqqqqqqqqqqqqqqq,,:::::::::::,qqqqqqqqqqqq",
"qqqqqqqqqqqq#X#X#X#X#X#X#X#X#X#X#X#X#X#X#X#Xqqqqqqqqqqqqqqqqqqqqqqqqqq::::::::::::::qqqqqqqqqqqq",
"qqqqqqqqqqqq##X#X#X#X#X#X#X#X#X#X#X#X#X#X#X#qqqqqqqqqqqqqqqqqqqqqqqqqq::::::::::::::qqqqqqqqqqqq",
"qqqqqqqqqqqq##@@#X#X#X#X#X#X#X#X#X#X#X#X#X##qqqqqqqqqqqqqqqqqqqqqqqqqq::::::::::::::qqqqqqqqqqqq",
"qqqqqqqqqqqq@@@@X#X#X#X#X#X#X#X#X#X#X#X#X##oqqqqqqqqqqqqqqqqqqqqqqqqqqq::::::::::::qqqqqqqqqqqqq",
"qqqqqqqqqqqqq@@@#X#X#X#X#X#X#X#X#X#X#X#X#X#qqqqqqqqqqqqqqqqqqqqqqqqqqqq,:::::::::::qqqqqqqqqqqqq",
"qqqqqqqqqqqqq@@@X#X#X#X#X#X#X#X#X#X#X#X#X##qqqqqqqqqqqqqqqqqqqqqqqqqqqqq::::::::::qqqqqqqqqqqqqq",
"qqqqqqqqqqqqq@@@#X#X#X#X#X#X#X#X#X#X#X#X###qqqqqqqqqqqqqqqqqqqqqqqqqqqqqq::::::::qqqqqqqqqqqqqqq",
"qqqqqqqqqqqqqq@@X#X#X#X#X#X#X#X#X#X#X#X###qqqqqqqqqqqqqqqqqqqqqqqqqqqqqqqqq::::qqqqqqqqqqqqqqqqq",
"qqqqqqqqqqqqqqq##X#XX#X#X#X#X#X##X#X#XX#Xoqqqqqqqqqqqqqqqqqqqqqqqqqqqqqqqqqqqqqqqqqqqqqqqqqqqqqq",
"qqqqqqqqqqqqqqq#X#X##X#X#X#X#X#XX#X#X####qqqqqqqqqqqqqqqqqqqqqqqqqqqqqqqqqqqqqqqqqqqqqqqqqqqqqqq",
"qqqqqqqqqqqqqqqq#X#XX#X#X#X#X#X##X#X#X##qqqqqqqqqqqqqqqqqqqqqqqqqqqqqqqqqqqqqqqqqqqqqqqqqqqqqqqq",
"qqqqqqqqqqqqqqqqq#X##X#X#X#X#X#XX#X#X#Xqqqqqqqqqqqqqqqqqqqqqqqqqqqqqqqqqqqqqqqqqqqqqqqqqqqqqqqqq",
"qqqqqqqqqqqqqqqqqq#######X#XX#X##X#X##qqqqqqqqqqqqqqqqqqqqqqqqqqqqqqqqqqqqqqqqqqqqqqqqqqqqqqqqqq",
"qqqqqqqqqqqqqqqqqqqqX###X#X##X#X##X#qqqqqqqqqqqqqqqqqqqqqqqqqqqqqqqqqqqqqqqqqqqqqqqqqqqqqqqqqqqq",
"qqqqqqqqqqqqqqqqqqqqq####X#XX#X####qqqqqqqqqqqqqqqqqqqqqqqqqqqqqqqqqqqqqqqqqqqqqqqqqqqqqqqqqqqqq",
"qqqqqqqqqqqqqqqqqqqqqqqq#&XX#XX#qqqqqqqqqqqqqqqqqqqqqqqqqqqqqqqqqqqqqqqqqqqqqqqqqqqqqqqqqqqqqqqq",
"qqqqqqqqqqqqqqqqqqqqqqqqqqqqqqqqqqqqqqqqqqqqqqqqqqqqqqqqqqqqqqqqqqqqqqqqqqqqqqqqqqqqqqqqqqqqqqqq",
"qqqqqqqqqqqqqqqqqqqqqqqqqqqqqqqqqqqqqqqqqqqqqqqqqqqqqqqqqqqqqqqqqqqqqqqqqqqqqqqqqqqqqqqqqqqqqqqq",
"qqqqqqqqqqqqqqqqqqqqqqqqqqqqqqqqqqqqqqqqqqqqqqqqqqqqqqqqqqqqqqqqqqqqqqqqqqqqqqqqqqqqqqqqqqqqqqqq",
"qqqqqqqqqqqqqqqqqqqqqqqqqqqqqqqqqqqqqqqqqqqqqqqqqqqqqqqqqqqqqqqqqqqqqqqqqqqqqqqqqqqqqqqqqqqqqqqq",
"qqqqqqqqqqqqqqqqqqqqqqqqqqqqqqqqqqqqqqqqqqqqqqqqqqqqqqqqqqqqqqqqqqqqqqqqqqqqqqqqqqqqqqqqqqqqqqqq",
"qqqqqqqqqqqqqqqqqqqqqqqqqqqqqqqqqqqqqqqqqqqqqqqqqqqqqqqqqqqqqqqqqqqqqqqqqqqqqqqqqqqqqqqqqqqqqqqq",
"qqqqqqqqqqqqqqqqqqqqqqqqqqqqqqqqqqqqqqqqqqqqqqqqqqqqqqqqqqqqqqqqqqqqqqqqqqqqqqqqqqqqqqqqqqqqqqqq",
"qqqqqqqqqqqqqqqqqqqqqqqqqqqqqqqqqqqqqqqqqqqqqqqqqqqqqqqqqqqqqqqqqqqqqqqqqqqqqqqqqqqqqqqqqqqqqqqq"
};
